<svg version="1.2" xmlns="http://www.w3.org/2000/svg" viewBox="0 0 768 768" width="512" height="512">
    <defs>
        <linearGradient id="colors" x1="767.8" y1="7.7" x2="767.8" y2="775.6" gradientUnits="userSpaceOnUse">
            <stop stop-color="#3379c1"/>
            <stop offset="1" stop-color="#d0379c"/>
        </linearGradient>
    </defs>
    <style>.color{fill:url(#colors)}</style>
    <path fill-rule="evenodd" class="color" d="m363 609.5h10.4v10.2h12.9v11h-12.9v-8.2h-12.4v11.4h11.1v10.6h-9.1v9.1h-13.6v-11.7h8.6v-5.5h-14.4v-15.2h14.4v-6.2h-14.4v0.9h-15.7v8h10.9v8.8h-15.9v-7h-10.1v8.2h11.1v8h14.9v11.7h10.6v9.7h-14.8v-6.4h-11.7v6.4h-13.4v-9.7h9.3v-9.1h-9.3v-10.6h-11.8v-10h11.8v-10.2h-11.8v-8.5h11.8v-7.2h-12v-178.5h-288.6l225.2-329h-234.1l74.7-90.5h329.4l-225.2 328.9l191.4 0.1h208.3c29.9 0 54.2-24.8 54.2-55.2c0-30.6-24.3-55.4-54.2-55.4h-79.1v6.6h4.8q3.2 0 5.2 1.1q2.7 1.3 4 4.2q0.9 2.1 0.9 4.6q0 6.3-4.5 9.1q-1.4 0.9-2.9 1.2q-1.4 0.2-4.1 0.2h-8.9v-27h-60.1q0.7 0.1 1.4 0.3q4.5 1.8 4.3 8.4v11.5h-11.5q-3.2 0-4.3-0.1q-1.2-0.3-2.1-0.8q-2.5-1.7-2.5-5.1q0-2.1 1-3.6q1-1.7 2.6-2.2q1.4-0.6 4.6-0.6h6.7q0-2.1-0.8-2.9q-0.9-0.7-3.4-0.7h-9.3v-4.2h-54.9v27h-5.5v-27h-62.5l59.9-90.5h221c78.7 0 142.7 65.4 142.7 145.9c0 76-57.3 138.7-130.1 145.2l176.6 349l-270.5-348.5h-111.2v178.5h-2.9v8h-14.9v-8h-5.3zm-41.1-2.8h-7.8v7h12.9v-15.8h-5.1zm21.7-0.1h8.8v-4.9h-8.8zm-35.6 68.2h14.9v11.5h-14.9zm18.9-9.5h15.4v10.4h-15.4zm34.1-8.4h16.6v12.6h-12v5.2h-13.4v-10.3h8.8zm-23.2 23.6h12.7v10.8h-12.7zm34.3-5.7h11.1v11.1h-11.1zm-4.4-107.7h9.6v-7h-9.6zm-11.6-11.9h8.5v-7.5h-8.5zm-4.9 11.8h8.1v-5.5h-8.1zm-34.5-16.5h8.9v-5.3h-8.9zm8.9 12.2h12.3v-5.6h-12.3zm-28 1.9h10.7v-6.2h-10.7zm17.1 17.2h5.4v-7h5.5v-6.2h-8.9v4.8h-8.4v4.9h-8.3v7.2h14.7zm25.1-4.2h-8.1v6.4h-11.6v9.9h13.6v-9.9h6.1zm-4.5-4.2h9.1v-4.8h-9.1zm1-37.6h8.1v-5.6h-8.1zm12.6 56.8h17.5v-8.5h-17.5zm10.4-11.8h11v-6.1h-11zm15.4-4.8h11v-5.1h-11zm59.4-345.7h-7.3q-0.9 0-1.4 0.5q-0.7 0.5-0.7 1.4q0 1 0.8 1.4q0.6 0.4 2.2 0.4h6.4zm65.3-1.2v11.7h4.1q2.6 0 3.9-1.6q1.3-1.8 1.3-4.3q0-5.8-5.2-5.8z"/>
</svg>