<?xml version="1.0" standalone="no"?>
<!DOCTYPE svg PUBLIC "-//W3C//DTD SVG 20010904//EN"
 "http://www.w3.org/TR/2001/REC-SVG-20010904/DTD/svg10.dtd">
<svg version="1.0" xmlns="http://www.w3.org/2000/svg"
 width="700.000000pt" height="700.000000pt" viewBox="0 0 700.000000 700.000000"
 preserveAspectRatio="xMidYMid meet">
<g transform="translate(0.000000,700.000000) scale(0.100000,-0.100000)"
fill="#000000" stroke="none">
<path d="M664 6983 c-9 -14 -252 -311 -342 -418 -10 -11 -57 -69 -107 -130
-49 -60 -92 -112 -95 -115 -6 -6 -90 -107 -107 -130 -10 -13 108 -15 1052 -15
1061 0 1063 0 1052 -20 -5 -11 -46 -72 -89 -135 -44 -63 -113 -164 -154 -225
-42 -60 -94 -137 -117 -170 -23 -33 -141 -206 -262 -383 -121 -177 -278 -407
-350 -512 -71 -104 -188 -275 -260 -380 -221 -323 -414 -605 -422 -615 -4 -6
-26 -37 -49 -70 -186 -276 -300 -442 -311 -453 -7 -7 -13 -19 -13 -25 0 -9
311 -12 1310 -11 l1310 0 0 -633 0 -633 50 0 c48 0 50 -1 50 -29 0 -26 -3 -29
-32 -29 -73 1 -68 14 -68 -152 l0 -150 55 0 55 0 0 -33 c0 -33 0 -33 -45 -32
-25 0 -49 -1 -53 -4 -12 -10 -12 -71 1 -72 7 -1 30 -2 52 -3 l40 -1 0 -45 0
-45 -45 -1 c-25 -1 -48 -2 -51 -3 -4 -1 -6 -22 -5 -47 1 -44 2 -45 31 -44 74
4 75 4 75 -47 l0 -48 42 0 c42 0 43 0 44 -38 1 -31 -2 -38 -20 -43 -12 -3 -26
-4 -32 -3 -27 5 -34 -3 -34 -44 l0 -44 63 1 c61 1 62 1 59 27 -3 24 1 27 30
30 61 7 78 0 78 -31 l0 -29 63 4 c34 1 65 3 69 4 4 0 5 17 3 36 -6 42 5 48 74
49 l46 1 3 41 c3 41 4 42 40 40 l37 -1 3 48 c3 51 4 50 -61 47 l-38 -2 3 54 3
53 53 1 c41 1 52 -3 53 -15 4 -59 1 -56 64 -59 l60 -3 -3 51 -4 50 -57 0 -58
0 1 41 c2 48 -7 57 -56 54 l-38 -2 0 54 c0 49 2 53 24 53 21 0 24 -4 22 -31
-3 -38 5 -43 72 -44 59 -1 63 2 64 45 1 17 7 30 13 30 9 0 13 28 14 99 l2 100
-52 3 c-41 2 -53 7 -55 21 -3 25 66 36 93 15 9 -7 12 149 12 684 0 381 1 696
1 699 0 3 228 5 506 5 l506 -1 20 -25 c11 -14 27 -34 36 -45 9 -12 39 -50 67
-85 27 -36 54 -70 60 -77 14 -17 24 -29 75 -98 25 -33 47 -62 50 -65 3 -3 44
-54 90 -115 47 -60 90 -117 97 -125 7 -8 45 -58 86 -110 217 -280 633 -817
644 -830 6 -8 64 -82 128 -165 63 -82 121 -157 128 -165 7 -8 50 -64 97 -125
47 -60 90 -117 97 -125 7 -8 164 -211 349 -450 416 -536 395 -510 417 -535 10
-11 -26 68 -81 175 -54 107 -213 420 -352 695 -139 275 -335 662 -435 860
-100 198 -302 597 -449 888 -147 290 -264 527 -259 528 100 10 305 60 331 81
6 6 12 8 12 4 0 -3 37 12 82 35 395 197 657 547 733 980 16 91 22 303 10 379
-3 19 -7 51 -10 70 -15 108 -65 260 -125 380 -34 70 -124 208 -162 251 -72 81
-101 110 -166 166 -39 34 -82 67 -94 74 -13 7 -25 15 -28 19 -10 15 -149 88
-222 118 -76 30 -192 64 -258 76 -19 3 -53 9 -75 12 -46 8 -2153 12 -2165 4
-8 -6 -540 -808 -540 -815 0 -3 126 -5 280 -5 154 0 280 -3 281 -7 0 -5 1 -59
2 -122 2 -110 3 -114 25 -117 25 -4 24 -9 24 154 l0 92 249 0 c249 0 255 -1
250 -32 0 -5 26 -8 58 -8 43 0 60 -4 65 -15 3 -8 2 -15 -2 -16 -4 0 -29 -1
-55 -2 -67 -3 -97 -45 -64 -91 10 -14 29 -19 84 -21 40 -1 76 1 82 4 5 4 8 35
7 71 -5 82 -3 76 -22 94 -14 15 7 16 252 14 l268 -3 0 -120 1 -120 50 -1 c91
-1 127 25 134 94 4 48 -43 92 -98 92 -40 0 -41 1 -39 30 l2 30 388 0 c420 -1
449 -4 558 -58 30 -15 82 -54 115 -87 279 -278 152 -750 -227 -849 -44 -11
-365 -14 -1905 -14 l-1852 0 96 142 c54 77 160 233 238 346 77 113 162 237
188 275 26 39 61 90 78 115 26 37 284 413 665 970 127 186 239 349 252 367 6
10 43 63 80 118 37 55 142 207 232 339 159 229 187 270 210 309 10 16 -63 17
-1492 17 -1421 0 -1504 -1 -1514 -17z m3960 -2081 c22 -36 8 -88 -24 -92 -45
-6 -50 -1 -50 50 l0 50 34 0 c19 0 37 -4 40 -8z m-666 -19 c2 -9 -10 -13 -42
-13 -43 0 -55 7 -39 24 12 11 76 2 81 -11z m-818 -2738 c0 -15 -6 -25 -15 -26
-57 -4 -59 -3 -58 19 0 12 1 23 2 25 1 2 17 4 36 5 31 2 35 0 35 -23z m-172
-137 c-2 -18 -10 -23 -44 -25 -37 -2 -40 0 -38 20 1 12 3 23 3 25 1 1 19 2 42
2 36 0 40 -2 37 -22z m353 -15 c0 -10 2 -26 4 -36 3 -15 -3 -18 -38 -15 -38 3
-41 5 -42 36 -1 31 0 32 37 32 29 0 38 -4 39 -17z m-241 -99 c0 -22 -4 -24
-55 -24 -52 0 -55 2 -55 24 0 28 15 33 72 28 32 -4 38 -8 38 -28z m360 -31 c0
-32 -1 -33 -45 -33 -43 0 -45 1 -45 29 0 32 8 38 57 37 30 -1 33 -3 33 -33z
m-165 -9 c0 -15 -9 -20 -37 -22 -35 -3 -38 -1 -38 22 0 15 7 26 18 28 28 7 57
-8 57 -28z m-307 -63 c-2 -18 -10 -27 -25 -29 -13 -2 -24 -11 -24 -20 -1 -9
-2 -24 -3 -32 -1 -10 -9 -14 -23 -12 -17 2 -23 -2 -23 -16 0 -18 -6 -19 -62
-17 -35 1 -65 3 -68 4 -3 0 -6 15 -6 31 -2 28 0 30 37 30 32 0 39 3 39 20 0
22 0 22 45 24 23 1 31 7 33 24 3 19 9 22 43 20 37 -1 40 -3 37 -27z m167 4 c0
-14 -7 -21 -25 -22 -39 -3 -56 5 -56 26 0 15 7 18 41 17 33 -1 40 -5 40 -21z
m234 -41 c3 -3 6 -13 8 -24 3 -19 -4 -22 -52 -22 -48 0 -55 2 -52 23 2 11 9
24 17 29 12 7 70 3 79 -6z m-272 -47 c2 -26 -12 -34 -49 -28 -4 0 -6 -18 -6
-40 0 -22 -3 -43 -6 -47 -8 -8 -116 -10 -117 -2 0 3 -1 24 -2 47 l-2 42 45 -3
c56 -3 70 2 63 20 -10 26 4 41 38 40 29 -1 34 -5 36 -29z m241 -69 l3 -36 -64
-4 c-91 -4 -97 -2 -97 36 0 18 2 35 5 37 2 3 37 5 77 5 l73 -1 3 -37z m-360
-160 l-3 -72 -37 1 c-81 2 -78 1 -76 33 2 27 6 30 35 30 34 0 37 5 35 58 -1
17 4 22 24 22 24 0 25 -1 22 -72z m232 15 c0 -20 -5 -23 -40 -23 -32 0 -40 4
-40 18 0 26 6 30 45 29 30 -1 35 -5 35 -24z m53 -114 c9 -33 -9 -44 -72 -41
l-61 2 0 -70 0 -70 65 0 c63 0 65 -1 65 -25 0 -22 -4 -25 -34 -25 -37 0 -48
-14 -41 -52 9 -43 -3 -57 -46 -56 -47 0 -54 9 -50 65 l3 43 -72 0 -72 0 4 35
c4 33 2 35 -27 36 -16 1 -40 0 -52 -1 -20 -1 -23 3 -23 38 l0 39 48 -1 c46 -1
47 -1 44 -32 l-3 -31 73 1 73 1 3 38 c3 40 3 40 -60 39 -37 -1 -38 -1 -38 37
l0 37 65 0 c36 -1 72 1 80 4 8 3 39 5 69 5 43 0 56 -3 59 -16z"/>
<path d="M3290 978 c0 -34 -2 -36 -27 -33 -44 5 -53 -4 -53 -51 l0 -44 59 0
c54 0 60 2 63 23 3 19 9 22 51 23 26 1 50 4 53 7 7 7 8 97 1 103 -3 3 -37 6
-76 7 l-71 2 0 -37z"/>
<path d="M2980 890 l0 -49 71 0 70 0 -3 47 -3 46 -67 2 -68 3 0 -49z"/>
<path d="M2808 823 c-2 -16 -1 -39 2 -53 5 -23 9 -25 68 -25 65 -1 64 -1 64
50 0 56 2 55 -66 55 -62 0 -64 -1 -68 -27z"/>
<path d="M3390 801 l0 -49 40 -4 c62 -6 66 0 61 87 -1 11 -14 15 -51 15 l-50
0 0 -49z"/>
<path d="M3080 748 l0 -48 58 0 58 0 -2 43 c-1 23 -2 45 -3 49 -1 4 -26 7 -56
6 l-55 -2 0 -48z"/>
</g>
</svg>
