<svg xmlns="http://www.w3.org/2000/svg" version="1.1" xmlns:xlink="http://www.w3.org/1999/xlink" xmlns:svgjs="http://svgjs.dev/svgjs" viewBox="0 0 1920 1080" class="overflow-hidden rounded-md drop-shadow-lg transition duration-300" style="overflow: hidden; height: 85vh;"><rect width="1920" height="1080" fill="#30216a"/><g clip-path="url(&quot;#SvgjsClipPath1963&quot;)"><g transform="matrix(1.15,0,0,1.15,-141.79966335296626,-81)"><path d="M0,-1080C4.45153640581546,-957.6276404244211,24.47015828074651,-563.3798787168204,26.70921843489276,-345.7658425465263C28.948278589039013,-128.15180637623226,22.654349716548303,32.23541535780717,13.43436092487751,225.6842170217643C4.214372133206714,419.1330186857215,-35.140820732305095,603.304240510107,-28.610714315132014,814.9269674372164C-22.080607897958934,1026.5496943643257,47.84654704206066,1271.2417398239568,52.61499942791599,1495.4205785844208C57.38345181377132,1719.5994173448848,8.769166571319332,2049.2367630974036,0,2160L 1920 2160 L 1920 -1080 Z" fill="url(&quot;#SvgjsLinearGradient1954&quot;)"/><path d="M213.33333333333331,-1080C223.71762500286533,-960.1525851245867,263.3461875155632,-562.6725301144393,275.6390833505254,-360.9155107475201C287.93197918548765,-159.15849138060094,286.11416407971257,-83.51677108992402,287.09070834310654,130.54211620151506C288.0672526065005,344.60100349295413,281.46996293044435,700.078547323328,281.4983489308894,923.4378130011144C281.52673493133443,1146.7970786789006,298.6218602787027,1264.6040124350852,287.26102434577666,1470.6977102682329C275.90018841285064,1676.7914081013805,225.65461516874055,2045.1162850447054,213.33333333333331,2160L 1920 2160 L 1920 -1080 Z" fill="url(&quot;#SvgjsLinearGradient1955&quot;)"/><path d="M426.66666666666663,-1080C439.31666849624804,-976.6458922392974,504.51589279424417,-637.5754237282844,502.5666776441551,-459.87535343578463C500.61746249406605,-282.1752831432849,440.8141384573927,-171.00121771639726,414.97137576613216,-13.799578245001626C389.1286130748716,143.40206122639404,354.72022220859026,311.82674256877016,347.51010149659186,483.3344833925892C340.29998078459346,654.8422242164083,353.51810872008684,837.4640882835894,371.7106514941416,1015.2468666979128C389.90319426819633,1193.029645112236,447.50602227883286,1359.2389649948482,456.6653581409204,1550.0311538785293C465.8246940030079,1740.8233427622104,431.66644857904225,2058.3385256464217,426.66666666666663,2160L 1920 2160 L 1920 -1080 Z" fill="url(&quot;#SvgjsLinearGradient1956&quot;)"/><path d="M640,-1080C646.7583337295638,-996.7633325608278,669.7614401131794,-744.2848261536934,680.5500023773825,-580.5799953649674C691.3385646415855,-416.87516457624145,703.4667660862654,-259.2459923790511,704.7313735852183,-97.77101526764423C705.9959810841713,63.70396184376261,707.2148445794933,251.382673215371,688.1376473711005,388.2698673034737C669.0604501627076,525.1570613915763,584.266288620821,586.9018526515497,590.2681903348611,723.5521492609719C596.2700920489011,860.2024458703941,701.6291774470268,1060.016811287785,724.1490576553406,1208.1716469600071C746.6689378636544,1356.3264826322293,739.4123145273009,1453.8431044543063,725.387471584744,1612.4811632943051C711.3626286421872,1771.119222134304,654.231245264124,2068.746860549051,640,2160L 1920 2160 L 1920 -1080 Z" fill="url(&quot;#SvgjsLinearGradient1957&quot;)"/><path d="M853.3333333333333,-1080C849.5490327236362,-950.8628816630362,822.1684063648806,-583.8217511670986,830.6275296751511,-305.1772899782176C839.0866529854216,-26.532828789336577,888.8140909409261,328.90213480806074,904.0880731949562,591.866767133286C919.3620554489863,854.8313994585112,930.7305465096019,1011.254965162015,922.2714231993315,1272.610503973134C913.812299889061,1533.966042784253,864.8230149776663,2012.101750662189,853.3333333333333,2160L 1920 2160 L 1920 -1080 Z" fill="url(&quot;#SvgjsLinearGradient1958&quot;)"/><path d="M1066.6666666666667,-1080C1055.5164175133762,-996.6876587491083,1001.6068917029452,-727.1400839452499,999.765171746923,-580.1259524946496C997.9234517909008,-433.1118210440493,1057.5035556616979,-357.20528375336653,1055.6163469305338,-197.91521129639827C1053.7291381993698,-38.62513883943001,982.544755189301,215.4052236738149,988.4419193599383,375.6144822471599C994.3390835305756,535.8237408205049,1068.5956704493633,607.6887223106814,1090.9993319543578,763.3403401436718C1113.4029934593523,918.9919579766622,1133.6753226779429,1158.4235325263155,1122.8638883899048,1309.524189245102C1112.0524541018667,1460.6248459638884,1035.496929846669,1528.198311997241,1026.1307262261294,1669.9442804563907C1016.7645226055897,1811.6902489155405,1059.9106765932438,2078.3240467427318,1066.6666666666667,2160L 1920 2160 L 1920 -1080 Z" fill="url(&quot;#SvgjsLinearGradient1959&quot;)"/><path d="M1280,-1080C1292.3889170219925,-1001.870399382631,1348.625105200864,-804.0252045273662,1354.3335021319547,-611.2223962957861C1360.0418990630453,-418.419588064206,1312.6972982320244,-113.35402522378126,1314.2503815865434,76.81684938948058C1315.8034649410624,266.9877240027424,1361.7432920076008,364.84468289856363,1363.6520022590694,529.802851383785C1365.560712510538,694.7610198690063,1328.402574270866,890.5152188886044,1325.7026430953545,1066.5658603008087C1323.002711919843,1242.616501713013,1355.0695223885602,1403.867676573812,1347.4524152060012,1586.1066998570107C1339.8353080234422,1768.3457231402092,1291.2420692010003,2064.351116642835,1280,2160L 1920 2160 L 1920 -1080 Z" fill="url(&quot;#SvgjsLinearGradient1960&quot;)"/><path d="M1493.3333333333333,-1080C1481.812817955048,-1005.4639640007335,1418.549396802694,-764.7507117838122,1424.210241063623,-632.7837840044012C1429.871085324552,-500.8168562249903,1514.6218797167865,-424.5663122773159,1527.2983988989072,-288.19843332353446C1539.974918081028,-151.830554369753,1494.4045327779402,34.55105925894864,1500.2693561563472,185.42348971828756C1506.1341795347541,336.2959201776265,1572.5031959778921,501.4607803176593,1562.4873391693488,617.0361494324991C1552.4714823608056,732.6115185473388,1449.965749087293,770.0035029223053,1440.174215305088,878.875704407326C1430.3826815228829,987.7479058923467,1483.9493760172868,1137.6935244717297,1503.7381364761186,1270.2693583426233C1523.5268969349504,1402.8451922135168,1560.6409119152102,1526.0422673564578,1558.9067780580792,1674.3307076326873C1557.1726442009483,1822.6191479089168,1504.2622407874576,2079.055117938781,1493.3333333333333,2160L 1920 2160 L 1920 -1080 Z" fill="url(&quot;#SvgjsLinearGradient1961&quot;)"/><path d="M1706.6666666666665,-1080C1711.246166928764,-968.2147256731099,1740.2801902529684,-618.793027724846,1734.1436682392523,-409.2883540386597C1728.0071462255362,-199.78368035247343,1686.7997993900387,-49.489719325183415,1669.8475345843697,177.02804211711754C1652.8952697787006,403.54580355941846,1633.7031639916527,725.9044828108064,1632.430079405238,949.818214615146C1631.1569948188235,1173.7319464194857,1649.8362625223112,1318.8134687123463,1662.2090270658828,1520.5104329431554C1674.5817916094543,1722.2073971739644,1699.2570600665358,2053.418405490526,1706.6666666666665,2160L 1920 2160 L 1920 -1080 Z" fill="url(&quot;#SvgjsLinearGradient1962&quot;)"/></g></g><defs><linearGradient x1="0.1" y1="0" x2="0" y2="1" id="SvgjsLinearGradient1954"><stop stop-color="#30216a" offset="0"/><stop stop-color="#24216a" offset="0"/></linearGradient><linearGradient x1="0.1" y1="0" x2="0" y2="1" id="SvgjsLinearGradient1955"><stop stop-color="#402c8d" offset="0"/><stop stop-color="#302c8d" offset="0.1111111111111111"/></linearGradient><linearGradient x1="0.1" y1="0" x2="0" y2="1" id="SvgjsLinearGradient1956"><stop stop-color="#5037b1" offset="0"/><stop stop-color="#3c37b1" offset="0.2222222222222222"/></linearGradient><linearGradient x1="0.1" y1="0" x2="0" y2="1" id="SvgjsLinearGradient1957"><stop stop-color="#674ec8" offset="0"/><stop stop-color="#534ec8" offset="0.3333333333333333"/></linearGradient><linearGradient x1="0.1" y1="0" x2="0" y2="1" id="SvgjsLinearGradient1958"><stop stop-color="#8672d3" offset="0"/><stop stop-color="#7672d3" offset="0.4444444444444444"/></linearGradient><linearGradient x1="0.1" y1="0" x2="0" y2="1" id="SvgjsLinearGradient1959"><stop stop-color="#a495de" offset="0"/><stop stop-color="#9895de" offset="0.5555555555555556"/></linearGradient><linearGradient x1="0.1" y1="0" x2="0" y2="1" id="SvgjsLinearGradient1960"><stop stop-color="#c3b9e9" offset="0"/><stop stop-color="#bbb9e9" offset="0.6666666666666666"/></linearGradient><linearGradient x1="0.1" y1="0" x2="0" y2="1" id="SvgjsLinearGradient1961"><stop stop-color="#e1dcf4" offset="0"/><stop stop-color="#dddcf4" offset="0.7777777777777778"/></linearGradient><linearGradient x1="0.1" y1="0" x2="0" y2="1" id="SvgjsLinearGradient1962"><stop stop-color="#ffffff" offset="0"/><stop stop-color="#ffffff" offset="0.8888888888888888"/></linearGradient><clipPath id="SvgjsClipPath1963"><rect width="1920" height="1080"/></clipPath></defs></svg>