<svg width="128" height="128" xmlns="http://www.w3.org/2000/svg" preserveAspectRatio="xMidYMid meet">
 <g>
  <title>ZR</title>
  <path id="zr" d="m104.97719,29.5634c-1.3,0.5 -7.6,4.4 -14,8.6c-11,7.2 -32.9,18.4 -52.5,26.8c-9.7,4.2 -12.7,7 -12.7,12.2c0,4.3 4.6,9.3 8.5,9.3c4.7,0 51.6,-21.6 61.2,-28.1c2.3,-1.6 4.5,-2.9 4.8,-2.9c0.9,0 -0.2,17.4 -2.1,34.4c-1.8,16.4 -5,32.3 -11.3,55.6c-6.4,23.9 -11.1,36.9 -17.3,47.7c-2.7,4.7 -5.2,10 -5.5,11.7c-0.7,4.8 1.2,8.5 5.3,10.2c6.2,2.6 8.6,1.3 18.6,-10.2c5,-5.7 14.3,-14.8 20.7,-20.1c14.7,-12.2 23.4,-21.2 29.6,-30.2l4.9,-7.1l3.8,5.8c5.5,8 10.9,19 22.9,46.2c5.7,12.9 11.4,24.5 12.6,25.7c5.2,5.3 15.3,1.1 15.3,-6.3c0,-5.1 -23.6,-58.5 -31.3,-71l-2.6,-4l10.7,0c8.6,0.1 12,-0.4 17.3,-2.2c18.6,-6.4 31,-18.8 35.5,-35.3c2.1,-7.9 2.9,-23.3 1.5,-30.1c-4.9,-23.2 -30.6,-43.1 -50.2,-38.9c-14.9,3.2 -20,10.2 -26.7,36.1c-2.2,8.5 -5.6,20 -7.7,25.5c-4.9,13.3 -15.5,35.2 -20.6,42.9c-4.2,6.1 -19.6,22.6 -21.2,22.6c-0.5,0 -0.6,-1 -0.3,-2.3c3.5,-12 10.8,-42.2 12.1,-49.7c3,-17.1 4.6,-34.2 5.2,-56.5c0.42135,-7.28334 0.68561,-15.40777 -0.5283,-21.71945c-0.37946,-1.22185 -1.16265,-2.50342 -2.01975,-3.17318c-2.91112,-2.97778 -7.55195,-3.30737 -11.95195,-1.50737zm87.8,28.9c5.1,2.6 12.5,10.4 15.2,15.9c1.9,3.8 2.3,6.2 2.3,13.6c0,11.7 -2.3,19.2 -7.5,24.9c-6.4,6.9 -18.7,12.6 -27.5,12.6c-4.4,0 -18.5,-3.8 -18.5,-5c0,-0.5 2.1,-6.1 4.6,-12.7c2.5,-6.5 6.4,-18.8 8.6,-27.3c2.1,-8.5 4.6,-17 5.5,-18.8c3,-6.3 9.1,-7.4 17.3,-3.2z"/>
 </g>
</svg>