<svg width="1024" height="1024" xmlns="http://www.w3.org/2000/svg" version="1.2">
 <defs>
  <linearGradient y2="1" x2="1" y1="0" x1="1" id="colors">
   <stop stop-color="#3379c1" offset="0"/>
   <stop stop-color="#d0379c" offset="1"/>
  </linearGradient>
 </defs>
 <g>
  <title>ZRLAB</title>
  <path id="acc" fill="url(#colors)" d="m491.10001,737.5l10.4,0l0,10.2l12.9,0l0,11l-12.9,0l0,-8.2l-12.4,0l0,11.4l11.1,0l0,10.6l-9.1,0l0,9.1l-13.6,0l0,-11.7l8.6,0l0,-5.5l-14.4,0l0,-15.2l14.4,0l0,-6.2l-14.4,0l0,0.9l-15.7,0l0,8l10.9,0l0,8.8l-15.9,0l0,-7l-10.1,0l0,8.2l11.1,0l0,8l14.9,0l0,11.7l10.6,0l0,9.7l-14.8,0l0,-6.4l-11.7,0l0,6.4l-13.4,0l0,-9.7l9.3,0l0,-9.1l-9.3,0l0,-10.6l-11.8,0l0,-10l11.8,0l0,-10.2l-11.8,0l0,-8.5l11.8,0l0,-7.2l-12,0l0,-178.5l-288.6,0l225.2,-329l-234.1,0l74.7,-90.5l329.4,0l-225.2,328.9l191.4,0.1l208.3,0c29.9,0 54.2,-24.8 54.2,-55.2c0,-30.6 -24.3,-55.4 -54.2,-55.4l-79.1,0l0,6.6l4.8,0q3.2,0 5.2,1.1q2.7,1.3 4,4.2q0.9,2.1 0.9,4.6q0,6.3 -4.5,9.1q-1.4,0.9 -2.9,1.2q-1.4,0.2 -4.1,0.2l-8.9,0l0,-27l-60.1,0q0.7,0.1 1.4,0.3q4.5,1.8 4.3,8.4l0,11.5l-11.5,0q-3.2,0 -4.3,-0.1q-1.2,-0.3 -2.1,-0.8q-2.5,-1.7 -2.5,-5.1q0,-2.1 1,-3.6q1,-1.7 2.6,-2.2q1.4,-0.6 4.6,-0.6l6.7,0q0,-2.1 -0.8,-2.9q-0.9,-0.7 -3.4,-0.7l-9.3,0l0,-4.2l-54.9,0l0,27l-5.5,0l0,-27l-62.5,0l59.9,-90.5l221,0c78.7,0 142.7,65.4 142.7,145.9c0,76 -57.3,138.7 -130.1,145.2l176.6,349l-270.5,-348.5l-111.2,0l0,178.5l-2.9,0l0,8l-14.9,0l0,-8l-5.3,0l0,11.5zm-41.1,-2.8l-7.8,0l0,7l12.9,0l0,-15.8l-5.1,0l0,8.8zm21.7,-0.1l8.8,0l0,-4.9l-8.8,0l0,4.9zm-35.6,68.2l14.9,0l0,11.5l-14.9,0l0,-11.5zm18.9,-9.5l15.4,0l0,10.4l-15.4,0l0,-10.4zm34.1,-8.4l16.6,0l0,12.6l-12,0l0,5.2l-13.4,0l0,-10.3l8.8,0l0,-7.5zm-23.2,23.6l12.7,0l0,10.8l-12.7,0l0,-10.8zm34.3,-5.7l11.1,0l0,11.1l-11.1,0l0,-11.1zm-4.4,-107.7l9.6,0l0,-7l-9.6,0l0,7zm-11.6,-11.9l8.5,0l0,-7.5l-8.5,0l0,7.5zm-4.9,11.8l8.1,0l0,-5.5l-8.1,0l0,5.5zm-34.5,-16.5l8.9,0l0,-5.3l-8.9,0l0,5.3zm8.9,12.2l12.3,0l0,-5.6l-12.3,0l0,5.6zm-28,1.9l10.7,0l0,-6.2l-10.7,0l0,6.2zm17.1,17.2l5.4,0l0,-7l5.5,0l0,-6.2l-8.9,0l0,4.8l-8.4,0l0,4.9l-8.3,0l0,7.2l14.7,0l0,-3.7zm25.1,-4.2l-8.1,0l0,6.4l-11.6,0l0,9.9l13.6,0l0,-9.9l6.1,0l0,-6.4zm-4.5,-4.2l9.1,0l0,-4.8l-9.1,0l0,4.8zm1,-37.6l8.1,0l0,-5.6l-8.1,0l0,5.6zm12.6,56.8l17.5,0l0,-8.5l-17.5,0l0,8.5zm10.4,-11.8l11,0l0,-6.1l-11,0l0,6.1zm15.4,-4.8l11,0l0,-5.1l-11,0l0,5.1zm59.4,-345.7l-7.3,0q-0.9,0 -1.4,0.5q-0.7,0.5 -0.7,1.4q0,1 0.8,1.4q0.6,0.4 2.2,0.4l6.4,0l0,-3.7zm65.3,-1.2l0,11.7l4.1,0q2.6,0 3.9,-1.6q1.3,-1.8 1.3,-4.3q0,-5.8 -5.2,-5.8l-4.1,0z" class="color" fill-rule="evenodd"/>
 </g>
</svg>