<svg width="1024" height="1024" xmlns="http://www.w3.org/2000/svg" version="1.2">
 <defs>
  <linearGradient y2="1" x2="1" y1="0" x1="1" id="colors">
   <stop stop-color="#3379c1" offset="0"/>
   <stop stop-color="#d0379c" offset="1"/>
  </linearGradient>
 </defs>
 <g>
  <title>ZRLAB</title>
  <path id="acf" fill="url(#colors)" d="m483.65877,811.8731l13.85402,0l0,13.58672l17.18432,0l0,14.65234l-17.18432,0l0,-10.92266l-16.51826,0l0,15.18516l14.78651,0l0,14.11953l-12.12227,0l0,12.12148l-18.1168,0l0,-15.58477l11.45621,0l0,-7.32617l-19.18249,0l0,-20.24688l19.18249,0l0,-8.25859l-19.18249,0l0,1.19883l-20.91425,0l0,10.65625l14.52008,0l0,11.72188l-21.18067,0l0,-9.32422l-13.45439,0l0,10.92266l14.78651,0l0,10.65625l19.84855,0l0,15.58477l14.12045,0l0,12.9207l-19.71534,0l0,-8.525l-15.58578,0l0,8.525l-17.85038,0l0,-12.9207l12.38869,0l0,-12.12148l-12.38869,0l0,-14.11953l-15.71899,0l0,-13.32031l15.71899,0l0,-13.58672l-15.71899,0l0,-11.32227l15.71899,0l0,-9.59063l-15.98541,0l0,-237.76759l-384.44916,0l299.9929,-438.2383l-311.84875,0l99.50919,-120.54883l438.79956,0l-299.9929,438.1051l254.96732,0.1332l277.48011,0c39.83032,0 72.20078,-33.03438 72.20078,-73.52813c0,-40.76016 -32.37046,-73.79453 -72.20078,-73.79453l-105.37051,0l0,8.79141l6.39416,0q4.26278,0 6.92701,1.46523q3.59672,1.73164 5.32847,5.59453q1.19891,2.79727 1.19891,6.12734q0,8.3918 -5.99453,12.12148q-1.86496,1.19883 -3.86314,1.59844q-1.86496,0.26641 -5.46168,0.26641l-11.85585,0l0,-35.96485l-80.06027,0q0.93248,0.1332 1.86496,0.39961q5.99453,2.39766 5.72811,11.18906l0,15.31836l-15.31935,0q-4.26278,0 -5.72811,-0.1332q-1.59854,-0.39961 -2.79745,-1.06563q-3.33029,-2.26445 -3.33029,-6.79336q0,-2.79727 1.33212,-4.79531q1.33212,-2.26445 3.46351,-2.93047q1.86496,-0.79922 6.12774,-0.79922l8.92519,0q0,-2.79727 -1.06569,-3.86289q-1.19891,-0.93242 -4.5292,-0.93242l-12.38869,0l0,-5.59453l-73.13326,0l0,35.96485l-7.32665,0l0,-35.96485l-83.25736,0l79.79385,-120.54883l294.39801,0c104.83766,0 190.09319,87.11485 190.09319,194.34337c0,101.23438 -76.33034,184.75274 -173.30851,193.41095l235.25198,464.87893l-360.33783,-464.21291l-148.13149,0l0,237.76759l-3.86314,0l0,10.65625l-19.84855,0l0,-10.65625l-7.06022,0l0,15.31836zm-54.75004,-3.72969l-10.39052,0l0,9.32422l17.18432,0l0,-21.04609l-6.7938,0l0,11.72188zm28.90695,-0.1332l11.72264,0l0,-6.52695l-11.72264,0l0,6.52695zm-47.42339,90.84454l19.84855,0l0,15.31836l-19.84855,0l0,-15.31836zm25.17702,-12.6543l20.51461,0l0,13.85313l-20.51461,0l0,-13.85313zm45.42521,-11.18906l22.11315,0l0,16.78359l-15.98541,0l0,6.92656l-17.85038,0l0,-13.71992l11.72264,0l0,-9.99023zm-30.90513,31.43594l16.91789,0l0,14.38594l-16.91789,0l0,-14.38594zm45.69164,-7.59258l14.78651,0l0,14.78555l-14.78651,0l0,-14.78555zm-5.86132,-143.45977l12.78833,0l0,-9.32422l-12.78833,0l0,9.32422zm-15.45257,-15.85117l11.323,0l0,-9.99023l-11.323,0l0,9.99023zm-6.52738,15.71797l10.79015,0l0,-7.32617l-10.79015,0l0,7.32617zm-45.95806,-21.97852l11.85585,0l0,-7.05977l-11.85585,0l0,7.05977zm11.85585,16.25078l16.38505,0l0,-7.45938l-16.38505,0l0,7.45938zm-37.2993,2.53086l14.25366,0l0,-8.25859l-14.25366,0l0,8.25859zm22.77921,22.91094l7.19344,0l0,-9.32422l7.32665,0l0,-8.25859l-11.85585,0l0,6.39375l-11.18979,0l0,6.52695l-11.05658,0l0,9.59063l19.58213,0l0,-4.92852zm33.43615,-5.59453l-10.79015,0l0,8.525l-15.45257,0l0,13.18711l18.1168,0l0,-13.18711l8.12592,0l0,-8.525zm-5.99453,-5.59453l12.12227,0l0,-6.39375l-12.12227,0l0,6.39375zm1.33212,-50.08438l10.79015,0l0,-7.45938l-10.79015,0l0,7.45938zm16.78468,75.65938l23.31206,0l0,-11.32227l-23.31206,0l0,11.32227zm13.85402,-15.71797l14.65329,0l0,-8.12539l-14.65329,0l0,8.12539zm20.51461,-6.39375l14.65329,0l0,-6.79336l-14.65329,0l0,6.79336zm79.12779,-460.48322l-9.72446,0q-1.19891,0 -1.86496,0.66602q-0.93248,0.66602 -0.93248,1.86484q0,1.33203 1.06569,1.86484q0.79927,0.53281 2.93066,0.53281l8.52555,0l0,-4.92852zm86.98728,-1.59844l0,15.58477l5.46168,0q3.46351,0 5.19526,-2.13125q1.73175,-2.39766 1.73175,-5.72773q0,-7.72578 -6.92701,-7.72578l-5.46168,0z" class="color" fill-rule="evenodd"/>
 </g>
</svg>