<svg width="1024" height="1024" xmlns="http://www.w3.org/2000/svg" version="1.2">

 <g>
  <title>ZRLAB</title>
  <path id="abf" d="m483.55877,811.87302l13.85403,0l0,13.58672l17.18432,0l0,14.65234l-17.18432,0l0,-10.92266l-16.51826,0l0,15.18516l14.78651,0l0,14.11953l-12.12227,0l0,12.12148l-18.1168,0l0,-15.58477l11.45621,0l0,-7.32617l-19.1825,0l0,-20.24687l19.1825,0l0,-8.25859l-19.1825,0l0,1.19883l-20.91425,0l0,10.65625l14.52008,0l0,11.72187l-21.18067,0l0,-9.32422l-13.45439,0l0,10.92266l14.78651,0l0,10.65625l19.84856,0l0,15.58477l14.12045,0l0,12.9207l-19.71534,0l0,-8.525l-15.58578,0l0,8.525l-17.85038,0l0,-12.9207l12.3887,0l0,-12.12148l-12.3887,0l0,-14.11953l-15.71899,0l0,-13.32031l15.71899,0l0,-13.58672l-15.71899,0l0,-11.32227l15.71899,0l0,-9.59062l-15.98541,0l0,-237.76757l-384.4492,0l299.99293,-438.23827l-311.84878,0l99.5092,-120.54882l438.79961,0l-299.99293,438.10506l254.96735,0.1332l277.48014,0c39.83032,0 72.20079,-33.03437 72.20079,-73.52812c0,-40.76015 -32.37046,-73.79453 -72.20079,-73.79453l-105.37052,0l0,8.79141l6.39417,0q4.26278,0 6.92701,1.46523q3.59672,1.73164 5.32847,5.59453q1.19891,2.79727 1.19891,6.12734q0,8.3918 -5.99453,12.12148q-1.86496,1.19883 -3.86314,1.59844q-1.86496,0.26641 -5.46168,0.26641l-11.85585,0l0,-35.96484l-80.06028,0q0.93248,0.1332 1.86496,0.39961q5.99453,2.39766 5.72811,11.18906l0,15.31836l-15.31935,0q-4.26278,0 -5.72811,-0.1332q-1.59854,-0.39961 -2.79745,-1.06562q-3.33029,-2.26445 -3.33029,-6.79336q0,-2.79727 1.33212,-4.79531q1.33212,-2.26445 3.46351,-2.93047q1.86496,-0.79922 6.12774,-0.79922l8.92519,0q0,-2.79727 -1.06569,-3.86289q-1.19891,-0.93242 -4.5292,-0.93242l-12.3887,0l0,-5.59453l-73.13327,0l0,35.96484l-7.32665,0l0,-35.96484l-83.25736,0l79.79386,-120.54882l294.39804,0c104.83767,0 190.09321,87.11484 190.09321,194.34335c0,101.23437 -76.33035,184.75273 -173.30853,193.41093l235.25201,464.87889l-360.33787,-464.21287l-148.1315,0l0,237.76757l-3.86314,0l0,10.65625l-19.84856,0l0,-10.65625l-7.06022,0l0,15.31836zm-54.75004,-3.72969l-10.39052,0l0,9.32422l17.18432,0l0,-21.04609l-6.7938,0l0,11.72187zm28.90696,-0.1332l11.72264,0l0,-6.52695l-11.72264,0l0,6.52695zm-47.42339,90.84453l19.84856,0l0,15.31836l-19.84856,0l0,-15.31836zm25.17703,-12.6543l20.51461,0l0,13.85312l-20.51461,0l0,-13.85312zm45.42522,-11.18906l22.11316,0l0,16.78359l-15.98541,0l0,6.92656l-17.85038,0l0,-13.71992l11.72264,0l0,-9.99023zm-30.90513,31.43594l16.9179,0l0,14.38594l-16.9179,0l0,-14.38594zm45.69164,-7.59258l14.78651,0l0,14.78555l-14.78651,0l0,-14.78555zm-5.86132,-143.45976l12.78833,0l0,-9.32422l-12.78833,0l0,9.32422zm-15.45257,-15.85117l11.323,0l0,-9.99023l-11.323,0l0,9.99023zm-6.52738,15.71797l10.79015,0l0,-7.32617l-10.79015,0l0,7.32617zm-45.95806,-21.97851l11.85585,0l0,-7.05977l-11.85585,0l0,7.05977zm11.85585,16.25078l16.38505,0l0,-7.45937l-16.38505,0l0,7.45937zm-37.2993,2.53086l14.25366,0l0,-8.25859l-14.25366,0l0,8.25859zm22.77921,22.91094l7.19344,0l0,-9.32422l7.32665,0l0,-8.25859l-11.85585,0l0,6.39375l-11.18979,0l0,6.52695l-11.05658,0l0,9.59062l19.58213,0l0,-4.92852zm33.43616,-5.59453l-10.79015,0l0,8.525l-15.45257,0l0,13.18711l18.1168,0l0,-13.18711l8.12592,0l0,-8.525zm-5.99453,-5.59453l12.12227,0l0,-6.39375l-12.12227,0l0,6.39375zm1.33212,-50.08437l10.79015,0l0,-7.45937l-10.79015,0l0,7.45937zm16.78468,75.65937l23.31206,0l0,-11.32227l-23.31206,0l0,11.32227zm13.85403,-15.71797l14.6533,0l0,-8.12539l-14.6533,0l0,8.12539zm20.51461,-6.39375l14.6533,0l0,-6.79336l-14.6533,0l0,6.79336zm79.1278,-460.48319l-9.72446,0q-1.19891,0 -1.86496,0.66602q-0.93248,0.66602 -0.93248,1.86484q0,1.33203 1.06569,1.86484q0.79927,0.53281 2.93066,0.53281l8.52555,0l0,-4.92852zm86.98729,-1.59844l0,15.58477l5.46168,0q3.46351,0 5.19526,-2.13125q1.73175,-2.39766 1.73175,-5.72773q0,-7.72578 -6.92701,-7.72578l-5.46168,0z" fill="#000"/>
 </g>
</svg>